 <svg  version="1.0" xmlns="http://www.w3.org/2000/svg"  width="500.000000pt" height="500.000000pt" viewBox="0 0 500.000000 500.000000"  preserveAspectRatio="xMidYMid meet">  <g transform="translate(0.000000,500.000000) scale(0.100000,-0.100000)" fill="#ffffff" stroke="none"> <path d="M2415 4125 c-38 -20 -132 -112 -195 -190 -120 -151 -319 -510 -370 -670 -7 -22 -16 -44 -20 -48 -7 -8 -16 108 -39 475 -5 84 -13 144 -21 153 -24 29 -140 16 -140 -16 0 -10 -7 -44 -16 -76 -8 -32 -24 -92 -35 -133 -106 -405 -272 -759 -437 -928 -63 -65 -117 -92 -183 -92 -47 0 -55 3 -94 43 -34 35 -44 53 -55 106 -17 80 -4 166 36 249 31 65 197 237 276 287 58 37 64 60 13 52 -20 -3 -33 -2 -30 3 3 5 -7 3 -22 -5 -16 -7 -39 -16 -53 -19 -23 -6 -22 -5 9 23 19 17 38 28 42 26 4 -3 9 2 13 10 6 16 -4 20 -19 7 -6 -5 -26 -15 -45 -22 -149 -57 -303 -223 -365 -394 -53 -145 -21 -328 73 -419 66 -64 115 -82 217 -82 82 0 97 3 156 32 81 40 150 105 216 204 110 164 195 347 273 586 29 87 55 162 60 166 4 5 11 -78 14 -185 8 -222 21 -286 65 -317 40 -29 85 -27 109 4 21 26 24 32 78 180 70 190 272 604 274 559 0 -6 -7 -33 -15 -60 -16 -56 -58 -255 -74 -356 -27 -168 -32 -199 -42 -298 -15 -139 -15 -395 0 -495 29 -183 116 -280 270 -301 36 -5 51 -11 47 -19 -2 -7 -10 -41 -17 -74 -46 -233 120 -477 380 -558 75 -24 103 -27 216 -27 123 0 135 2 232 35 132 46 229 106 323 199 118 116 191 248 237 430 20 80 28 309 14 410 -21 155 -61 347 -102 489 -17 57 -29 104 -27 105 2 2 24 17 49 34 26 17 65 52 88 78 36 41 41 53 41 96 0 41 -5 54 -28 78 -63 62 -162 48 -247 -35 -32 -31 -55 -63 -60 -83 -5 -26 -18 -38 -70 -67 -70 -40 -188 -82 -315 -113 -143 -34 -164 -38 -500 -83 -47 -6 -98 -15 -115 -19 -28 -8 -27 -8 15 -11 l45 -2 -45 -7 c-39 -6 -32 -7 45 -10 l90 -4 -70 -5 c-46 -4 -62 -8 -45 -12 25 -6 25 -6 -3 -8 -39 -2 -24 -21 16 -21 24 0 28 -3 17 -10 -8 -5 -26 -10 -40 -11 -14 -1 -2 -5 25 -10 28 -5 61 -6 75 -3 14 3 72 8 130 10 235 8 359 37 658 153 39 16 72 27 72 25 0 -2 7 -29 16 -61 160 -594 165 -849 20 -1113 -45 -83 -156 -188 -251 -237 -112 -57 -175 -73 -292 -73 -166 0 -275 50 -365 168 -34 44 -50 77 -58 118 -12 57 -6 169 9 189 5 5 11 22 15 37 27 113 249 351 479 514 76 53 164 133 135 121 -55 -22 -54 -22 -33 2 l20 23 -39 -16 c-22 -9 -41 -15 -43 -12 -2 2 17 25 42 50 l46 47 -56 -30 c-30 -17 -55 -27 -55 -23 0 4 -6 0 -13 -8 -7 -8 -32 -26 -57 -39 -111 -59 -347 -245 -413 -324 -66 -78 -82 -94 -121 -121 -73 -49 -161 -24 -196 57 -31 71 -45 272 -31 429 43 478 151 959 265 1186 47 93 45 116 -9 120 -22 1 -53 -5 -70 -13z"/> </g> </svg> 